<svg width="48" height="48" viewBox="0 0 48 48" fill="none" xmlns="http://www.w3.org/2000/svg">
<g id="headset alt">
<path id="secondary" d="M29.8904 40.5H23.8566C23.3642 40.5 22.8919 40.3104 22.5438 39.9728C22.1956 39.6352 22 39.1774 22 38.7C22 38.2226 22.1956 37.7648 22.5438 37.4272C22.8919 37.0896 23.3642 36.9 23.8566 36.9H29.8904C30.6515 36.9 31.2828 36.072 31.2828 35.1V33.3C31.2828 32.8226 31.4784 32.3648 31.8265 32.0272C32.1747 31.6896 32.6469 31.5 33.1393 31.5C33.6317 31.5 34.1039 31.6896 34.4521 32.0272C34.8003 32.3648 34.9959 32.8226 34.9959 33.3V35.1C35.0513 36.471 34.5459 37.8076 33.5897 38.819C32.6335 39.8304 31.3039 40.4346 29.8904 40.5Z" fill="#69C647"/>
<path id="primary" d="M36.5526 11.0523C34.1558 8.41944 30.992 6.6061 27.5083 5.86852C24.0246 5.13095 20.3972 5.50643 17.1385 6.94192C13.8799 8.37741 11.1548 10.8003 9.34832 13.8683C7.54186 16.9363 6.74536 20.4942 7.07136 24.0393L7.40302 27.7236C7.42729 29.665 8.21703 31.5184 9.60059 32.8809C10.9842 34.2435 12.8497 35.005 14.7918 35H16.6343C17.6117 35 18.5491 34.6118 19.2402 33.9209C19.9313 33.23 20.3195 32.2928 20.3195 31.3157V22.1051C20.3195 21.128 19.9313 20.1909 19.2402 19.4999C18.5491 18.809 17.6117 18.4208 16.6343 18.4208H14.7918C13.4923 18.4399 12.2209 18.8021 11.1066 19.4708C11.79 16.5601 13.4345 13.9645 15.7747 12.1028C18.1148 10.2412 21.0141 9.22218 24.0047 9.2102C26.9952 9.22218 29.8945 10.2412 32.2347 12.1028C34.5748 13.9645 36.2193 16.5601 36.9027 19.4708C35.7884 18.8021 34.5171 18.4399 33.2176 18.4208H31.375C30.3976 18.4208 29.4603 18.809 28.7692 19.4999C28.0781 20.1909 27.6898 21.128 27.6898 22.1051V31.3157C27.6898 32.2928 28.0781 33.23 28.7692 33.9209C29.4603 34.6118 30.3976 35 31.375 35H33.2176C35.1346 35.0008 36.9765 34.2549 38.3525 32.9205C39.7286 31.5861 40.5304 29.7682 40.5879 27.8525L40.9196 24.1683C41.151 21.7982 40.8818 19.406 40.1295 17.1466C39.3773 14.8872 38.1587 12.8109 36.5526 11.0523Z" fill="#323847"/>
</g>
</svg>
