<svg width="48" height="48" viewBox="0 0 48 48" fill="none" xmlns="http://www.w3.org/2000/svg">
<g id="Frame 56/Variant3">
<path id="secondary" d="M36.5 17H31.25C30.7859 17 30.3408 17.1881 30.0126 17.523C29.6844 17.8579 29.5 18.3121 29.5 18.7857V40.2143C29.5 40.6879 29.6844 41.1421 30.0126 41.477C30.3408 41.8119 30.7859 42 31.25 42H38.25C38.7141 42 39.1592 41.8119 39.4874 41.477C39.8156 41.1421 40 40.6879 40 40.2143V20.5714C40 19.6242 39.6313 18.7158 38.9749 18.046C38.3185 17.3763 37.4283 17 36.5 17Z" fill="#69C647"/>
<path id="primary" d="M40.2 38.4001H33V7.80051C32.9987 7.51495 32.9294 7.23379 32.798 6.98028C32.6665 6.72676 32.4766 6.50816 32.244 6.34253C32.0132 6.17527 31.746 6.0652 31.4644 6.02139C31.1827 5.97758 30.8947 6.00128 30.624 6.09054L10.266 12.8764C9.5476 13.1149 8.92264 13.5737 8.47993 14.1876C8.03723 14.8016 7.79931 15.5395 7.8 16.2964V38.4001C7.32261 38.4001 6.86477 38.5897 6.52721 38.9272C6.18964 39.2648 6 39.7226 6 40.2C6 40.6774 6.18964 41.1352 6.52721 41.4728C6.86477 41.8104 7.32261 42 7.8 42H40.2C40.6774 42 41.1352 41.8104 41.4728 41.4728C41.8104 41.1352 42 40.6774 42 40.2C42 39.7226 41.8104 39.2648 41.4728 38.9272C41.1352 38.5897 40.6774 38.4001 40.2 38.4001Z" fill="#323847"/>
<path id="secondary_2" d="M24.1667 27.5H16.8333C16.3471 27.5 15.8808 27.6932 15.537 28.037C15.1932 28.3808 15 28.8471 15 29.3333V38.5H26V29.3333C26 28.8471 25.8068 28.3808 25.463 28.037C25.1192 27.6932 24.6529 27.5 24.1667 27.5Z" fill="#69C647"/>
</g>
</svg>
