<svg width="72" height="72" viewBox="0 0 72 72" fill="none" xmlns="http://www.w3.org/2000/svg">
<path d="M72 36C72 55.8823 55.8823 72 36 72C16.1177 72 0 55.8823 0 36C0 16.1177 16.1177 0 36 0C55.8823 0 72 16.1177 72 36Z" fill="#40DDB6"/>
<path fill-rule="evenodd" clip-rule="evenodd" d="M22.5625 22.2188C22.3727 22.2188 22.2188 22.3727 22.2188 22.5625V49.4375C22.2188 49.6273 22.3727 49.7812 22.5625 49.7812H49.4375C49.6273 49.7812 49.7812 49.6273 49.7812 49.4375V22.5625C49.7812 22.3727 49.6273 22.2188 49.4375 22.2188H22.5625ZM20.2188 22.5625C20.2188 21.2681 21.2681 20.2188 22.5625 20.2188H49.4375C50.7319 20.2188 51.7812 21.2681 51.7812 22.5625V49.4375C51.7812 50.7319 50.7319 51.7812 49.4375 51.7812H22.5625C21.2681 51.7812 20.2188 50.7319 20.2188 49.4375V22.5625Z" fill="white"/>
<path fill-rule="evenodd" clip-rule="evenodd" d="M44.0625 17.5312C44.6148 17.5312 45.0625 17.979 45.0625 18.5312V23.9062C45.0625 24.4585 44.6148 24.9062 44.0625 24.9062C43.5102 24.9062 43.0625 24.4585 43.0625 23.9062V18.5312C43.0625 17.979 43.5102 17.5312 44.0625 17.5312Z" fill="white"/>
<path fill-rule="evenodd" clip-rule="evenodd" d="M27.9375 17.5312C28.4898 17.5312 28.9375 17.979 28.9375 18.5312V23.9062C28.9375 24.4585 28.4898 24.9062 27.9375 24.9062C27.3852 24.9062 26.9375 24.4585 26.9375 23.9062V18.5312C26.9375 17.979 27.3852 17.5312 27.9375 17.5312Z" fill="white"/>
<path fill-rule="evenodd" clip-rule="evenodd" d="M20.2188 29.2812C20.2188 28.729 20.6665 28.2812 21.2188 28.2812H50.7812C51.3335 28.2812 51.7812 28.729 51.7812 29.2812C51.7812 29.8335 51.3335 30.2812 50.7812 30.2812H21.2188C20.6665 30.2812 20.2188 29.8335 20.2188 29.2812Z" fill="white"/>
<path fill-rule="evenodd" clip-rule="evenodd" d="M28.9531 36C28.9531 35.4477 29.4008 35 29.9531 35H34.6562C35.0407 35 35.391 35.2203 35.5576 35.5668C35.7241 35.9133 35.6773 36.3245 35.4371 36.6247L33.7042 38.7908C33.7052 38.7914 33.7062 38.7919 33.7072 38.7924C34.2428 39.0778 34.6997 39.4909 35.0374 39.9952C35.375 40.4995 35.583 41.0793 35.6429 41.6832C35.7027 42.2871 35.6126 42.8964 35.3805 43.4572C35.1484 44.0179 34.7815 44.5127 34.3123 44.8976C33.8432 45.2826 33.2863 45.5458 32.691 45.6639C32.0957 45.782 31.4805 45.7513 30.8999 45.5747C30.3194 45.398 29.7913 45.0808 29.3627 44.6512C28.9727 44.2602 28.9735 43.627 29.3645 43.237C29.7554 42.8469 30.3886 42.8477 30.7787 43.2387C30.9748 43.4353 31.2164 43.5805 31.4821 43.6613C31.7478 43.7421 32.0294 43.7562 32.3018 43.7021C32.5742 43.6481 32.829 43.5276 33.0437 43.3514C33.2584 43.1753 33.4263 42.9489 33.5326 42.6923C33.6388 42.4357 33.68 42.1568 33.6526 41.8804C33.6252 41.6041 33.5301 41.3387 33.3755 41.108C33.221 40.8772 33.0119 40.6881 32.7668 40.5576C32.5217 40.427 32.2482 40.3589 31.9705 40.3594C31.5857 40.36 31.2348 40.1399 31.0678 39.7933C30.9009 39.4467 30.9476 39.0351 31.1879 38.7347L32.5756 37H29.9531C29.4008 37 28.9531 36.5523 28.9531 36Z" fill="white"/>
<path fill-rule="evenodd" clip-rule="evenodd" d="M41.8223 35.1056C42.1611 35.275 42.3751 35.6212 42.3751 36V44.7344C42.3751 45.2867 41.9273 45.7344 41.3751 45.7344C40.8228 45.7344 40.3751 45.2867 40.3751 44.7344V38L39.2876 38.8156C38.8457 39.147 38.2189 39.0575 37.8876 38.6156C37.5562 38.1738 37.6457 37.547 38.0876 37.2156L40.7751 35.2C41.0781 34.9727 41.4835 34.9362 41.8223 35.1056Z" fill="white"/>
</svg>
